<?xml version="1.0" encoding="utf-8"?>
<!-- Generator: Adobe Illustrator 26.2.1, SVG Export Plug-In . SVG Version: 6.00 Build 0)  -->
<svg version="1.1" id="Capa_1" xmlns="http://www.w3.org/2000/svg" xmlns:xlink="http://www.w3.org/1999/xlink" x="0px" y="0px"
	 viewBox="0 0 20 20" style="enable-background:new 0 0 20 20;" xml:space="preserve">
<style type="text/css">
	.st0{fill-rule:evenodd;clip-rule:evenodd;fill:#151515;}
</style>
<path class="st0" d="M10,0C7.3,0,6.9,0,5.9,0.1C2.2,0.2,0.2,2.2,0.1,5.9C0,6.9,0,7.3,0,10c0,2.7,0,3.1,0.1,4.1
	c0.2,3.6,2.2,5.7,5.8,5.8C6.9,20,7.3,20,10,20c2.7,0,3.1,0,4.1-0.1c3.6-0.2,5.7-2.2,5.8-5.8c0-1.1,0.1-1.4,0.1-4.1
	c0-2.7,0-3.1-0.1-4.1c-0.2-3.6-2.2-5.7-5.8-5.8C13.1,0,12.7,0,10,0z M10,1.8c2.7,0,3,0,4,0.1C16.8,2,18,3.3,18.1,6
	c0,1.1,0.1,1.4,0.1,4c0,2.7,0,3-0.1,4c-0.1,2.7-1.4,4-4.1,4.1c-1.1,0-1.4,0.1-4,0.1c-2.7,0-3,0-4-0.1C3.2,18,2,16.7,1.9,14
	c0-1.1-0.1-1.4-0.1-4c0-2.7,0-3,0.1-4C2,3.3,3.2,2,6,1.9C7,1.8,7.3,1.8,10,1.8z M4.9,10c0-2.8,2.3-5.1,5.1-5.1
	c2.8,0,5.1,2.3,5.1,5.1c0,2.8-2.3,5.1-5.1,5.1C7.2,15.1,4.9,12.8,4.9,10z M10,13.3c-1.8,0-3.3-1.5-3.3-3.3c0-1.8,1.5-3.3,3.3-3.3
	c1.8,0,3.3,1.5,3.3,3.3C13.3,11.8,11.8,13.3,10,13.3z M14.1,4.7c0-0.7,0.5-1.2,1.2-1.2c0.7,0,1.2,0.5,1.2,1.2S16,5.9,15.3,5.9
	C14.7,5.9,14.1,5.3,14.1,4.7z"/>
</svg>
